# xmcd CD database file
#
# Track frame offsets:
#	150
#	12101
#	22291
#	30179
#	41192
#	51089
#	68221
#	87989
#	99980
#	113414
#	121673
#	131474
#	144770
#	153247
#	163125
#
# Disc length: 2303 seconds
#
# Revision: 0
# Processed by: cddbd v1.5.2PL0 Copyright (c) Steve Scherf et al.
# Submitted via: CDex 2.02
#
DISCID=b308fd0f
DTITLE=Andy Cohen - Ridiculous Instrumentals
DYEAR=2005
DGENRE=Blues
TTITLE0=Big Bill (The Mopper's Blues)
TTITLE1=Harlem Chocolate Babies of 1921
TTITLE2=Twelve Sticks
TTITLE3=Brillo's Waltz
TTITLE4=Free At Last
TTITLE5=Happy Times/St. Thomas
TTITLE6=United States March
TTITLE7=Miss Lady
TTITLE8=Make Believe Stunt
TTITLE9=Buck Dancer's Choice
TTITLE10=Lay Me Down in D
TTITLE11=High Society
TTITLE12=New Gravy Waltz
TTITLE13=Shuffle Rag
TTITLE14=Brady Lake Breezes
EXTD=YEAR: 2005
EXTT0=
EXTT1=
EXTT2=
EXTT3=
EXTT4=
EXTT5=
EXTT6=
EXTT7=
EXTT8=
EXTT9=
EXTT10=
EXTT11=
EXTT12=
EXTT13=
EXTT14=
PLAYORDER=
